<?xml version="1.0" encoding="UTF-8"?>
<svg xmlns="http://www.w3.org/2000/svg" xmlns:xlink="http://www.w3.org/1999/xlink" width="52.5pt" height="30.000001pt" viewBox="0 0 52.5 30.000001" version="1.2">
<defs>
<clipPath id="clip1">
  <path d="M 0.605469 6 L 16 6 L 16 11 L 0.605469 11 Z M 0.605469 6 "/>
</clipPath>
<clipPath id="clip2">
  <path d="M 0.605469 12 L 16 12 L 16 17 L 0.605469 17 Z M 0.605469 12 "/>
</clipPath>
<clipPath id="clip3">
  <path d="M 0.605469 18 L 16 18 L 16 23 L 0.605469 23 Z M 0.605469 18 "/>
</clipPath>
</defs>
<g id="surface1">
<g clip-path="url(#clip1)" clip-rule="nonzero">
<path style=" stroke:none;fill-rule:nonzero;fill:rgb(100%,100%,100%);fill-opacity:1;" d="M 14.671875 10.617188 L 1.292969 10.617188 C 0.914062 10.617188 0.605469 10.308594 0.605469 9.925781 L 0.605469 7.636719 C 0.605469 7.253906 0.914062 6.945312 1.292969 6.945312 L 14.671875 6.945312 C 15.050781 6.945312 15.359375 7.253906 15.359375 7.636719 L 15.359375 9.925781 C 15.359375 10.308594 15.050781 10.617188 14.671875 10.617188 Z M 14.671875 10.617188 "/>
</g>
<g clip-path="url(#clip2)" clip-rule="nonzero">
<path style=" stroke:none;fill-rule:nonzero;fill:rgb(100%,100%,100%);fill-opacity:1;" d="M 14.675781 16.488281 L 1.292969 16.488281 C 0.914062 16.488281 0.605469 16.179688 0.605469 15.796875 L 0.605469 13.519531 C 0.605469 13.136719 0.914062 12.828125 1.292969 12.828125 L 14.675781 12.828125 C 15.054688 12.828125 15.363281 13.136719 15.363281 13.519531 L 15.363281 15.796875 C 15.363281 16.179688 15.054688 16.488281 14.675781 16.488281 Z M 14.675781 16.488281 "/>
</g>
<path style=" stroke:none;fill-rule:nonzero;fill:rgb(100%,100%,100%);fill-opacity:1;" d="M 29.605469 10.617188 L 18.144531 10.617188 C 17.765625 10.617188 17.457031 10.308594 17.457031 9.925781 L 17.457031 7.636719 C 17.457031 7.253906 17.765625 6.945312 18.144531 6.945312 L 29.605469 6.945312 C 29.984375 6.945312 30.292969 7.253906 30.292969 7.636719 L 30.292969 9.925781 C 30.292969 10.308594 29.984375 10.617188 29.605469 10.617188 Z M 29.605469 10.617188 "/>
<path style=" stroke:none;fill-rule:nonzero;fill:rgb(100%,100%,100%);fill-opacity:1;" d="M 44.355469 10.617188 L 32.894531 10.617188 C 32.515625 10.617188 32.207031 10.308594 32.207031 9.925781 L 32.207031 7.636719 C 32.207031 7.253906 32.515625 6.945312 32.894531 6.945312 L 44.355469 6.945312 C 44.734375 6.945312 45.042969 7.253906 45.042969 7.636719 L 45.042969 9.925781 C 45.042969 10.308594 44.734375 10.617188 44.355469 10.617188 Z M 44.355469 10.617188 "/>
<path style=" stroke:none;fill-rule:nonzero;fill:rgb(100%,100%,100%);fill-opacity:1;" d="M 29.605469 16.5 L 18.144531 16.5 C 17.765625 16.5 17.457031 16.1875 17.457031 15.808594 L 17.457031 13.519531 C 17.457031 13.136719 17.765625 12.828125 18.144531 12.828125 L 29.605469 12.828125 C 29.984375 12.828125 30.292969 13.136719 30.292969 13.519531 L 30.292969 15.808594 C 30.292969 16.1875 29.984375 16.5 29.605469 16.5 Z M 29.605469 16.5 "/>
<path style=" stroke:none;fill-rule:nonzero;fill:rgb(100%,100%,100%);fill-opacity:1;" d="M 44.355469 16.5 L 32.894531 16.5 C 32.515625 16.5 32.207031 16.1875 32.207031 15.808594 L 32.207031 13.519531 C 32.207031 13.136719 32.515625 12.828125 32.894531 12.828125 L 44.355469 12.828125 C 44.734375 12.828125 45.042969 13.136719 45.042969 13.519531 L 45.042969 15.808594 C 45.042969 16.1875 44.734375 16.5 44.355469 16.5 Z M 44.355469 16.5 "/>
<g clip-path="url(#clip3)" clip-rule="nonzero">
<path style=" stroke:none;fill-rule:nonzero;fill:rgb(100%,100%,100%);fill-opacity:1;" d="M 14.675781 22.371094 L 1.292969 22.371094 C 0.914062 22.371094 0.605469 22.058594 0.605469 21.679688 L 0.605469 19.398438 C 0.605469 19.019531 0.914062 18.710938 1.292969 18.710938 L 14.675781 18.710938 C 15.054688 18.710938 15.363281 19.019531 15.363281 19.398438 L 15.363281 21.679688 C 15.363281 22.058594 15.054688 22.371094 14.675781 22.371094 Z M 14.675781 22.371094 "/>
</g>
<path style=" stroke:none;fill-rule:nonzero;fill:rgb(100%,100%,100%);fill-opacity:1;" d="M 29.605469 22.371094 L 18.144531 22.371094 C 17.765625 22.371094 17.457031 22.058594 17.457031 21.679688 L 17.457031 19.390625 C 17.457031 19.007812 17.765625 18.699219 18.144531 18.699219 L 29.605469 18.699219 C 29.984375 18.699219 30.292969 19.007812 30.292969 19.390625 L 30.292969 21.679688 C 30.292969 22.058594 29.984375 22.371094 29.605469 22.371094 Z M 29.605469 22.371094 "/>
<path style=" stroke:none;fill-rule:nonzero;fill:rgb(100%,100%,100%);fill-opacity:1;" d="M 44.355469 22.371094 L 32.894531 22.371094 C 32.515625 22.371094 32.207031 22.058594 32.207031 21.679688 L 32.207031 19.390625 C 32.207031 19.007812 32.515625 18.699219 32.894531 18.699219 L 44.355469 18.699219 C 44.734375 18.699219 45.042969 19.007812 45.042969 19.390625 L 45.042969 21.679688 C 45.042969 22.058594 44.734375 22.371094 44.355469 22.371094 Z M 44.355469 22.371094 "/>
</g>
</svg>
